<svg width="1296" height="765" xmlns="http://www.w3.org/2000/svg" version="1.1">
 <g>
  <title>Layer 1</title>
  <g transform="matrix(7.45553 0.00128823 -0.00128823 7.45553 260 8.99817)" id="svg_1">
   <path d="m97.65116,71.11703c-0.1,-0.061 -0.209,-0.089 -0.312,-0.138c-1.725,-19.696 -6.116,-38.109 -17.043,-54.696c0.388,-2.356 -0.645,-4.781 -2.793,-6.009c-2.783,-1.593 -6.367,-0.568 -8.001,2.29a6.132,6.132 0 0 0 -0.763,2.374c-9.851,1.966 -19.631,4.949 -26.969,11.563c-0.078,-0.051 -0.146,-0.116 -0.226,-0.163c-2.786,-1.594 -6.37,-0.568 -8.004,2.289a6.02,6.02 0 0 0 -0.775,3.511c-11.347,6.23 -21.687,13.909 -27.16,25.549a5.985,5.985 0 0 0 -4.261,2.943c-1.636,2.86 -0.702,6.467 2.083,8.062c2.785,1.592 6.368,0.567 8.002,-2.292c0.061,-0.105 0.094,-0.223 0.148,-0.331c11.031,-1.594 19.184,3.757 26.219,11.821c-1.438,2.815 -0.504,6.255 2.2,7.802c2.781,1.591 6.368,0.565 8.001,-2.294c0.408,-0.712 0.657,-1.47 0.756,-2.233c12.262,-6.219 26.326,-6.109 40.109,-4.818c-0.022,2.058 0.985,4.051 2.865,5.122c2.782,1.592 6.367,0.569 8,-2.29c1.642,-2.861 0.709,-6.469 -2.076,-8.062zm-50.583,-23.222c-1.284,-3.933 -3.009,-7.837 -5.011,-11.697c0.462,-0.357 0.859,-0.808 1.215,-1.302c11.376,-0.886 24.461,2.385 31.074,13.191a6.008,6.008 0 0 0 -0.481,1.458c-8.929,-1.146 -17.962,-1.942 -26.797,-1.65zm24.515,-27.271c1.15,0.658 2.429,0.848 3.656,0.667c2.532,7.642 2.956,15.547 2.401,23.733a5.874,5.874 0 0 0 -0.776,0.351c-7.238,-11.194 -19.804,-16.185 -32.456,-13.988a5.88,5.88 0 0 0 -0.366,-2.045c6.832,-6.308 16.196,-9.031 25.454,-10.842a5.594,5.594 0 0 0 2.087,2.124zm10.959,24.741a5.484,5.484 0 0 0 -1.228,-0.508c0.531,-8.161 0.078,-16.037 -2.26,-23.658c8.306,13.801 12.266,28.77 14.107,44.748c-2.021,-4.857 -4.705,-9.28 -8.207,-13.259c1.111,-2.717 0.144,-5.864 -2.412,-7.323zm-48.325,-9.853c0.401,0.45 0.855,0.859 1.404,1.173c0.925,0.531 1.941,0.747 2.945,0.725c1.863,3.529 3.494,7.087 4.737,10.673c-11.771,0.829 -23.094,3.829 -33.217,10.785a5.527,5.527 0 0 0 -0.714,-0.512c5.189,-10.34 14.599,-17.209 24.845,-22.844zm-22.106,26.785c-0.024,-0.126 -0.031,-0.253 -0.061,-0.379c9.788,-6.812 20.861,-9.605 32.343,-10.294c2.039,7.553 2.138,15.228 -1.167,22.993a5.872,5.872 0 0 0 -2.898,0.675c-7.639,-8.603 -16.56,-14.293 -28.217,-12.995zm35.87,15.125a5.572,5.572 0 0 0 -1.294,-1.531c3.459,-8.204 3.464,-16.372 1.422,-24.419c8.696,-0.196 17.562,0.674 26.234,1.803a5.67,5.67 0 0 0 2.279,2.441c1.924,1.102 4.219,0.926 6.001,-0.217c3.977,4.677 6.77,10.083 8.693,16.044c-0.464,0.344 -0.873,0.77 -1.235,1.25c-14.379,-1.402 -29.202,-1.609 -42.1,4.629z" fill="#010101" id="svg_2"/>
  </g>
 </g>

</svg>